TITLE ""
FILE "Disc6Track66.mp3" MP3
  TRACK 01 AUDIO
    TITLE "Disc6Track66_01"
    INDEX 01 00:00:00
  TRACK 02 AUDIO
    TITLE "Disc6Track66_02"
    INDEX 01 00:01:12
  TRACK 03 AUDIO
    TITLE "Disc6Track66_03"
    INDEX 01 00:03:24
  TRACK 04 AUDIO
    TITLE "Disc6Track66_04"
    INDEX 01 00:04:51
  TRACK 05 AUDIO
    TITLE "Disc6Track66_05"
    INDEX 01 00:05:15
  TRACK 06 AUDIO
    TITLE "Disc6Track66_06"
    INDEX 01 00:06:46
  TRACK 07 AUDIO
    TITLE "Disc6Track66_07"
    INDEX 01 00:08:24
  TRACK 08 AUDIO
    TITLE "Disc6Track66_08"
    INDEX 01 00:09:52
  TRACK 09 AUDIO
    TITLE "Disc6Track66_09"
    INDEX 01 00:11:63
  TRACK 10 AUDIO
    TITLE "Disc6Track66_10"
    INDEX 01 00:12:17
  TRACK 11 AUDIO
    TITLE "Disc6Track66_11"
    INDEX 01 00:13:25
  TRACK 12 AUDIO
    TITLE "Disc6Track66_12"
    INDEX 01 00:14:32
  TRACK 13 AUDIO
    TITLE "Disc6Track66_13"
    INDEX 01 00:15:39
  TRACK 14 AUDIO
    TITLE "Disc6Track66_14"
    INDEX 01 00:17:36
  TRACK 15 AUDIO
    TITLE "Disc6Track66_15"
    INDEX 01 00:17:66
  TRACK 16 AUDIO
    TITLE "Disc6Track66_16"
    INDEX 01 00:19:06
  TRACK 17 AUDIO
    TITLE "Disc6Track66_17"
    INDEX 01 00:20:15
  TRACK 18 AUDIO
    TITLE "Disc6Track66_18"
    INDEX 01 00:21:34
  TRACK 19 AUDIO
    TITLE "Disc6Track66_19"
    INDEX 01 00:21:67
  TRACK 20 AUDIO
    TITLE "Disc6Track66_20"
    INDEX 01 00:23:05
  TRACK 21 AUDIO
    TITLE "Disc6Track66_21"
    INDEX 01 00:24:01
  TRACK 22 AUDIO
    TITLE "Disc6Track66_22"
    INDEX 01 00:25:12
  TRACK 23 AUDIO
    TITLE "Disc6Track66_23"
    INDEX 01 00:29:35
  TRACK 24 AUDIO
    TITLE "Disc6Track66_24"
    INDEX 01 00:29:69
  TRACK 25 AUDIO
    TITLE "Disc6Track66_25"
    INDEX 01 00:31:01
  TRACK 26 AUDIO
    TITLE "Disc6Track66_26"
    INDEX 01 00:33:47
  TRACK 27 AUDIO
    TITLE "Disc6Track66_27"
    INDEX 01 00:34:54
  TRACK 28 AUDIO
    TITLE "Disc6Track66_28"
    INDEX 01 00:38:25
  TRACK 29 AUDIO
    TITLE "Disc6Track66_29"
    INDEX 01 00:38:54
  TRACK 30 AUDIO
    TITLE "Disc6Track66_30"
    INDEX 01 00:39:67
  TRACK 31 AUDIO
    TITLE "Disc6Track66_31"
    INDEX 01 00:42:32
  TRACK 32 AUDIO
    TITLE "Disc6Track66_32"
    INDEX 01 00:43:47
  TRACK 33 AUDIO
    TITLE "Disc6Track66_33"
    INDEX 01 00:44:10
  TRACK 34 AUDIO
    TITLE "Disc6Track66_34"
    INDEX 01 00:45:25
  TRACK 35 AUDIO
    TITLE "Disc6Track66_35"
    INDEX 01 00:47:06
  TRACK 36 AUDIO
    TITLE "Disc6Track66_36"
    INDEX 01 00:48:19
  TRACK 37 AUDIO
    TITLE "Disc6Track66_37"
    INDEX 01 00:53:01
  TRACK 38 AUDIO
    TITLE "Disc6Track66_38"
    INDEX 01 00:53:30
  TRACK 39 AUDIO
    TITLE "Disc6Track66_39"
    INDEX 01 00:54:51
  TRACK 40 AUDIO
    TITLE "Disc6Track66_40"
    INDEX 01 00:56:09
